<?xml version="1.0" encoding="UTF-8"?>
<svg id="Layer_1" data-name="Layer 1" xmlns="http://www.w3.org/2000/svg" viewBox="0 0 1280 320.8">
  <defs>
    <style>
      .cls-1, .cls-2 {
        fill: #b17d2b;
      }

      .cls-2 {
        font-family: Gilroy-ExtraBold, Gilroy;
        font-size: 286.43px;
        font-weight: 700;
      }
    </style>
  </defs>
  <path d="m147.87,49.77v192.4h-41.23v-12.92c-9.07,10.44-22.54,16.77-40.95,16.77C29.68,246.02,0,214.41,0,173.46s29.68-72.56,65.69-72.56c18.42,0,31.88,6.32,40.95,16.77V49.77h41.23Zm-41.23,123.69c0-20.62-13.74-33.53-32.71-33.53s-32.71,12.92-32.71,33.53,13.74,33.53,32.71,33.53,32.71-12.92,32.71-33.53Z"/>
  <path d="m425.77,104.83v39.49c-17.04-2.75-41.23,8.52-41.23,35.73v62.12h-41.23V104.74h41.23v24.46c5.5-18.42,23.91-24.38,41.23-24.38Z"/>
  <path d="m498.34,144.32v48.65c0,11.82,10.17,12.92,28.31,11.82v37.38c-53.87,5.5-69.54-10.72-69.54-49.2v-48.65h-21.99v-39.58h21.99v-55.61h41.23v55.61h28.31v39.58h-28.31Z"/>
  <path class="cls-1" d="m531.65,163c2.56-44.4,38.21-76.73,83.51-74.12,28.91,1.67,53.66,18.34,65.15,42.03l-40.34,20.4c-4.46-10.72-14.83-17.6-27.94-18.35-19.37-1.12-34.48,12.06-35.67,32.63-1.19,20.56,12.31,35.39,31.68,36.51,13.11.76,24.5-4.86,29.87-15.02l37.75,24.6c-14.16,22.51-40.36,36.24-69.57,34.56-45.29-2.61-76.99-38.83-74.43-83.23Z"/>
  <path class="cls-1" d="m983.21,49.77v192.4h-41.23v-12.92c-9.07,10.44-22.54,16.77-40.96,16.77-36.01,0-65.69-31.61-65.69-72.56s29.68-72.56,65.69-72.56c18.42,0,31.88,6.32,40.96,16.77V49.77h41.23Zm-41.23,123.69c0-20.62-13.75-33.53-32.71-33.53s-32.71,12.92-32.71,33.53,13.74,33.53,32.71,33.53,32.71-12.92,32.71-33.53Z"/>
  <path class="cls-1" d="m1080.25,209.19c11.27,0,20.89-4.4,26.39-10.44l32.98,18.96c-13.47,18.69-33.81,28.31-59.92,28.31-47,0-76.14-31.61-76.14-72.56s29.68-72.56,73.11-72.56c40.13,0,69.81,31.06,69.81,72.56,0,5.77-.55,11.27-1.65,16.49h-97.58c5.22,14.3,17.86,19.24,32.98,19.24Zm25.29-50.03c-4.4-15.94-16.77-21.71-29.14-21.71-15.67,0-26.11,7.69-29.96,21.71h59.1Z"/>
  <path d="m271.67,104.74v12.92c-8.8-10.44-21.86-16.77-39.72-16.77-31.77,0-58.39,26.19-62.95,61.75h54.87v-38.86l63.9,53.65-63.9,51.33v-38.86h-53.98c6.51,32.65,31.98,56.11,62.05,56.11,17.86,0,30.92-6.32,39.72-16.77v12.92h39.99V104.74h-39.99Z"/>
  <path class="cls-1" d="m749.02,100.9c-35.55,0-64.91,24.49-71.45,58.27h42.72c4.92-11.27,15.72-18.14,28.73-18.14,17.87,0,31.61,12.92,31.61,32.43s-13.74,32.43-31.61,32.43c-11.88,0-21.91-5.74-27.31-15.3h-43.48c7.6,32.29,36.25,55.43,70.79,55.43,40.41,0,72.84-31.61,72.84-72.56s-32.43-72.56-72.84-72.56Z"/>
  <text class="cls-2" transform="translate(1145.95 243.46)"><tspan x="0" y="0">s</tspan></text>
</svg>